<?xml version="1.0" standalone="no"?>
<!DOCTYPE svg PUBLIC "-//W3C//DTD SVG 20010904//EN"
 "http://www.w3.org/TR/2001/REC-SVG-20010904/DTD/svg10.dtd">
<svg version="1.0" xmlns="http://www.w3.org/2000/svg"
 width="500.000000pt" height="500.000000pt" viewBox="0 0 500.000000 500.000000"
 preserveAspectRatio="xMidYMid meet">
<metadata>
Created by potrace 1.16, written by Peter Selinger 2001-2019
</metadata>
<g transform="translate(0.000000,500.000000) scale(0.100000,-0.100000)"
fill="#000000" stroke="none">
<path d="M2940 4989 c-120 -24 -69 24 -1408 -1313 -1205 -1204 -1254 -1254
-1290 -1325 -36 -73 -37 -78 -37 -185 0 -105 2 -115 33 -180 29 -61 59 -96
247 -286 118 -119 215 -220 215 -226 0 -5 -99 -108 -219 -228 -138 -138 -221
-228 -224 -244 -12 -61 33 -112 100 -112 35 0 49 12 263 225 l225 225 90 -90
90 -90 -507 -508 c-396 -395 -509 -514 -514 -538 -13 -64 50 -125 113 -110 19
5 192 171 535 514 l508 507 382 -381 c453 -450 438 -439 623 -439 104 0 114 2
180 33 67 32 121 84 1326 1290 1373 1373 1297 1291 1321 1436 8 48 8 84 0 132
-23 140 6 107 -871 987 -454 454 -830 824 -861 845 -90 60 -209 83 -320 61z
m190 -210 c35 -15 224 -198 823 -797 690 -689 837 -843 837 -874 0 -4 -409 -8
-910 -8 l-910 0 0 850 0 850 58 0 c35 0 74 -8 102 -21z m-370 -2198 c-14 -53
-71 -115 -129 -140 -49 -21 -60 -21 -465 -19 l-415 3 145 150 c80 83 149 161
155 174 30 74 -51 149 -125 116 -17 -7 -128 -110 -246 -229 l-215 -216 -137 0
c-76 0 -138 3 -138 7 0 4 203 210 450 458 427 428 450 452 450 487 0 52 -45
98 -96 98 -37 0 -53 -15 -564 -525 l-525 -525 -173 0 c-94 0 -172 3 -172 7 0
5 496 504 1103 1111 l1102 1102 3 -1011 c1 -645 -1 -1025 -8 -1048z m1320 322
c0 -4 -130 -138 -290 -298 -285 -286 -290 -291 -290 -332 0 -56 37 -93 92 -93
46 0 52 5 499 453 l277 277 196 0 c149 0 196 -3 196 -12 0 -13 -2367 -2387
-2432 -2440 l-38 -30 0 901 0 901 159 0 c218 0 300 27 402 133 89 91 119 191
119 399 l0 148 555 0 c305 0 555 -3 555 -7z m-1990 -1584 l0 -910 -22 7 c-13
4 -43 24 -68 45 -25 21 -385 379 -801 796 -488 489 -764 772 -777 798 -26 54
-35 99 -28 141 l7 34 844 0 845 0 0 -911z"/>
<path d="M2188 3694 c-46 -25 -62 -79 -36 -127 18 -34 40 -46 81 -47 98 0 132
131 46 176 -35 18 -57 17 -91 -2z"/>
<path d="M70 818 c-61 -22 -82 -74 -55 -132 34 -72 131 -70 167 2 17 36 11 83
-15 109 -20 21 -69 31 -97 21z"/>
<path d="M1140 633 c-8 -3 -124 -114 -258 -247 -187 -186 -243 -248 -248 -272
-12 -65 49 -124 113 -110 20 5 104 82 273 251 238 238 245 246 245 285 0 29
-7 47 -25 65 -26 25 -73 39 -100 28z"/>
</g>
</svg>
