<?xml version="1.0" standalone="no"?>
<!DOCTYPE svg PUBLIC "-//W3C//DTD SVG 20010904//EN"
 "http://www.w3.org/TR/2001/REC-SVG-20010904/DTD/svg10.dtd">
<svg version="1.0" xmlns="http://www.w3.org/2000/svg"
 width="500.000000pt" height="500.000000pt" viewBox="0 0 500.000000 500.000000"
 preserveAspectRatio="xMidYMid meet">
<metadata>
Created by potrace 1.16, written by Peter Selinger 2001-2019
</metadata>
<g transform="translate(0.000000,500.000000) scale(0.100000,-0.100000)"
fill="#000000" stroke="none">
<path d="M3785 4365 c5 -11 8 -30 8 -42 -1 -18 5 -23 22 -23 18 0 26 -8 35
-36 13 -38 42 -44 49 -9 2 11 12 26 23 33 12 9 17 20 13 33 -5 14 0 20 19 25
14 3 30 3 36 -1 5 -3 17 0 25 9 21 20 10 24 -62 24 -47 0 -69 -5 -87 -19 -31
-24 -34 -24 -64 4 -23 20 -25 20 -17 2z"/>
<path d="M3118 3848 c5 -7 13 -27 16 -44 6 -27 4 -32 -15 -37 -13 -4 -29 -1
-36 5 -8 6 -15 9 -17 7 -1 -2 -13 -22 -26 -44 -26 -44 -78 -116 -155 -215 -28
-36 -68 -92 -88 -125 -21 -33 -29 -49 -18 -35 55 69 218 292 250 341 l36 57
96 -142 c53 -77 147 -213 210 -301 63 -88 136 -191 163 -228 l48 -69 -408 6
c-225 4 -434 9 -464 11 -30 2 -63 4 -72 4 -10 1 -18 6 -18 11 0 6 36 11 83 12
l82 2 -77 3 c-43 2 -78 6 -78 9 0 2 7 16 16 29 14 22 25 25 78 27 l61 2 -52 3
c-71 5 -67 23 5 25 46 1 49 2 17 5 -55 6 -61 16 -26 45 16 14 27 29 24 32 -4
3 11 7 33 7 38 1 38 2 9 9 -29 8 -29 8 10 10 38 3 39 3 7 7 l-32 4 20 27 c12
15 29 38 39 51 13 18 32 27 67 32 l49 8 -48 -2 c-47 -2 -48 -2 -28 14 12 10
21 21 21 27 0 5 11 17 24 28 14 10 23 21 21 24 -2 4 10 23 28 42 18 19 32 39
32 44 0 5 36 10 80 12 48 1 75 -1 67 -6 -11 -7 -9 -11 7 -15 14 -3 19 -1 14 6
-20 33 -106 157 -108 157 -2 0 -14 -17 -26 -37 -13 -20 -71 -101 -129 -180
-58 -78 -127 -174 -155 -212 -27 -39 -54 -71 -58 -71 -5 0 -5 6 -1 13 4 6 -2
3 -14 -7 -25 -21 -31 -36 -7 -16 27 22 16 2 -35 -65 -35 -46 -50 -75 -50 -97
0 -17 -3 -28 -7 -25 -3 4 -12 2 -19 -4 -8 -7 -214 -11 -615 -12 -472 -2 -603
-5 -606 -14 -4 -10 249 -13 1241 -13 1216 0 1246 0 1246 19 0 10 -7 22 -16 25
-13 5 -14 9 -5 20 9 11 8 14 -5 12 -12 -1 -17 7 -18 26 -1 15 -8 33 -15 40
-11 11 -12 10 -6 -1 5 -9 3 -12 -6 -9 -8 3 -14 9 -14 14 0 5 -10 20 -23 34
-15 16 -19 27 -12 34 16 16 11 26 -12 23 -17 -1 -23 4 -24 20 -1 13 3 20 9 16
6 -4 8 0 4 11 -4 10 -7 20 -7 22 0 2 -11 4 -24 4 -27 0 -42 15 -26 25 6 4 5
11 -4 21 -17 17 -30 19 -20 2 4 -7 3 -8 -4 -4 -6 4 -9 13 -5 22 3 9 0 14 -8
12 -10 -2 -13 5 -11 21 3 19 0 22 -14 17 -14 -5 -15 -4 -4 9 8 10 9 15 1 15
-15 0 -14 30 2 31 6 0 1 5 -12 10 -14 5 -30 8 -36 5 -7 -2 -31 22 -54 55 l-42
59 -54 0 -54 0 -3 125 c-2 77 1 127 7 129 6 3 -39 5 -99 5 -85 1 -106 -2 -98
-11z"/>
<path d="M2429 3675 c-3 -2 -54 -5 -115 -6 -60 0 -112 -3 -117 -6 -4 -2 0 -11
8 -19 10 -10 15 -35 15 -71 l0 -55 -105 4 c-58 2 -105 1 -105 -2 0 -3 30 -44
66 -93 36 -48 62 -92 59 -97 -4 -6 -1 -9 7 -8 7 2 13 -5 13 -14 0 -9 4 -20 9
-25 5 -5 6 -2 1 6 -6 10 -4 12 4 7 7 -5 10 -15 7 -23 -3 -8 -2 -12 2 -9 4 3
14 -4 21 -16 8 -14 9 -18 1 -13 -12 7 32 -65 59 -98 8 -9 12 -18 10 -20 -2 -1
-106 -1 -231 1 l-227 3 33 44 c19 24 46 76 62 115 15 40 34 74 41 77 7 3 11 8
8 12 -7 12 70 92 80 84 4 -5 -3 9 -16 30 -21 32 -25 35 -34 21 -5 -10 -22 -31
-36 -48 -14 -17 -56 -75 -93 -128 -37 -54 -70 -98 -72 -98 -8 0 18 41 86 139
97 138 120 174 120 183 0 5 -50 7 -112 6 l-112 -3 -49 -60 c-27 -33 -81 -103
-120 -155 -39 -52 -105 -138 -146 -190 -41 -52 -79 -101 -84 -107 -7 -10 76
-13 408 -13 366 0 416 2 411 15 -4 11 5 16 35 21 37 6 53 20 184 168 132 148
232 246 309 304 l30 22 -166 0 -167 0 -3 28 c-4 34 11 72 29 72 7 0 13 5 13
10 0 10 -13 14 -21 5z"/>
<path d="M1265 3588 c-49 -18 -130 -66 -155 -93 -13 -14 -29 -25 -36 -25 -6 0
-17 -6 -23 -14 -7 -8 -27 -18 -44 -22 -28 -6 -30 -8 -12 -15 33 -13 72 -10 85
6 7 8 21 15 32 15 10 0 32 7 49 15 27 15 31 14 58 -6 31 -23 56 -18 46 9 -3 8
0 19 7 24 10 6 9 12 -6 23 -18 13 -18 16 -3 39 9 13 26 27 37 31 22 7 28 25 8
24 -7 0 -26 -5 -43 -11z"/>
<path d="M776 3231 c5 -4 29 -16 54 -25 46 -18 115 -66 93 -66 -7 0 -10 -15
-8 -42 4 -48 6 -49 79 -16 46 21 49 22 61 5 8 -12 15 -14 20 -8 3 6 17 11 31
11 15 0 24 6 24 15 0 10 -10 15 -27 15 l-28 1 30 24 30 25 -28 0 c-19 0 -26 4
-21 13 3 6 -5 -1 -19 -18 l-25 -30 -29 26 c-50 45 -82 59 -156 69 -92 12 -93
12 -81 1z"/>
<path d="M2900 2730 l0 -100 60 0 60 0 0 100 0 100 -60 0 -60 0 0 -100z"/>
<path d="M3950 2624 c-19 -8 -53 -34 -75 -57 -23 -23 -59 -54 -82 -69 -31 -21
-45 -40 -57 -75 -9 -25 -23 -54 -32 -64 -13 -14 -15 -28 -9 -61 13 -81 12 -91
-15 -105 -32 -16 -60 -50 -60 -73 0 -23 -37 -16 -44 9 -2 9 -4 -14 -4 -50 1
-36 -1 -70 -4 -75 -3 -5 -8 -22 -12 -38 l-7 -30 -26 30 c-14 16 -37 46 -51 67
-24 36 -65 51 -74 27 -2 -6 -14 -6 -33 -1 -16 5 -26 10 -21 10 5 1 -11 16 -36
35 -25 19 -87 79 -138 133 -77 81 -91 93 -87 70 2 -15 0 -30 -4 -33 -5 -3 -9
9 -9 26 0 45 21 46 85 5 53 -33 61 -32 29 5 -7 8 -13 19 -13 24 0 6 -8 11 -17
12 -8 1 -24 10 -34 19 -16 15 -21 12 -66 -38 -27 -30 -71 -81 -99 -115 -27
-33 -53 -61 -57 -61 -4 -1 -5 11 -2 27 7 40 -9 87 -32 90 -17 2 -19 10 -16 62
5 87 -39 159 -100 160 -4 0 -9 -10 -11 -22 l-4 -23 -2 23 c-1 26 -2 26 -36 10
-14 -6 -25 -18 -25 -26 0 -7 -9 -16 -20 -19 -16 -4 -20 -14 -20 -45 0 -27 -8
-50 -25 -72 -14 -18 -25 -36 -25 -39 0 -4 18 -6 39 -4 33 3 41 0 50 -20 10
-22 9 -23 -29 -23 -44 0 -63 -22 -58 -67 4 -31 23 -41 32 -17 4 12 2 15 -9 10
-21 -8 -19 6 6 33 22 24 40 24 47 0 2 -10 1 -11 -5 -2 -5 7 -14 9 -23 3 -12
-7 -12 -11 0 -25 8 -9 15 -23 16 -31 3 -18 30 -45 38 -37 3 4 6 1 6 -5 0 -7
-7 -12 -15 -12 -8 0 -15 5 -15 11 0 5 -4 7 -10 4 -5 -3 -10 -1 -10 5 0 6 -4 8
-10 5 -5 -3 -10 -1 -10 6 0 7 -3 9 -7 6 -3 -4 -11 -2 -18 3 -15 12 -53 -26
-58 -57 -1 -12 -8 -27 -14 -35 -30 -36 -74 -285 -60 -339 11 -44 51 -94 75
-93 12 0 22 -1 22 -2 0 -2 -12 -39 -27 -81 -30 -88 -39 -227 -15 -241 9 -7 52
-133 52 -157 0 -2 -19 9 -43 26 -58 41 -117 49 -153 20 -15 -12 -28 -20 -29
-19 -1 2 1 42 4 89 6 84 5 86 -14 79 -19 -7 -21 -4 -22 33 -1 23 3 47 9 54 14
18 48 17 48 -1 0 -8 5 -18 11 -22 6 -4 10 1 8 12 -1 11 5 37 15 59 31 71 39
135 33 264 -8 200 -76 421 -145 469 -19 14 -32 34 -36 57 -4 20 -15 39 -27 45
-16 9 -19 17 -13 48 8 42 25 58 72 67 42 8 34 21 -18 29 -29 4 -40 11 -40 24
0 9 -11 30 -24 47 l-24 29 -56 -17 c-35 -12 -62 -27 -72 -42 -16 -24 -18 -25
-193 -28 l-176 -2 178 -3 c110 -1 177 -6 177 -12 0 -5 -5 -10 -10 -10 -6 0 -5
-6 2 -14 7 -8 16 -12 19 -11 3 2 3 -15 0 -38 -5 -35 -10 -43 -31 -46 -20 -3
-22 -5 -8 -10 10 -3 -81 -5 -202 -2 l-220 3 0 -45 c0 -25 -4 -49 -10 -52 -6
-4 -10 13 -10 44 0 28 -4 51 -9 51 -5 0 -42 -34 -82 -75 l-74 -76 -18 26 c-27
36 -37 31 -37 -19 0 -25 -5 -48 -10 -51 -6 -4 -8 -10 -5 -15 3 -5 1 -11 -4
-15 -15 -8 -2 -35 14 -29 7 3 20 -5 29 -18 9 -12 16 -17 16 -10 0 7 4 11 9 8
5 -4 12 0 14 6 3 7 6 3 6 -10 1 -13 5 -21 10 -18 5 3 12 -11 16 -31 4 -24 3
-39 -4 -41 -6 -2 -10 -13 -10 -25 1 -18 2 -19 6 -4 5 18 5 18 19 0 7 -10 14
-26 14 -35 0 -9 9 -23 20 -31 15 -10 18 -19 12 -42 -9 -33 -32 -46 -32 -17 0
11 -7 25 -15 32 -13 11 -14 10 -8 -5 5 -15 3 -17 -11 -12 -10 4 -15 3 -11 -3
4 -6 0 -17 -9 -25 -19 -20 -27 -19 -19 3 3 9 3 14 -1 10 -11 -10 -18 -68 -8
-68 5 0 8 -19 8 -42 -1 -29 -5 -42 -13 -40 -7 1 -13 -5 -13 -14 0 -13 -3 -14
-14 -5 -7 6 -32 13 -56 15 -23 3 -49 11 -57 19 -13 13 -11 16 20 26 19 6 44
23 57 36 13 13 27 22 32 19 5 -4 4 3 -3 15 -9 14 -16 17 -20 9 -4 -7 -6 -15
-4 -18 4 -6 -78 -50 -92 -50 -4 0 8 14 25 31 18 17 32 36 32 43 0 6 -5 4 -10
-4 -8 -12 -10 -12 -10 -1 0 8 -8 4 -19 -10 -30 -37 -35 -16 -12 50 12 34 20
71 20 84 -1 20 -2 20 -6 2 -2 -11 -8 -29 -13 -40 -23 -56 -34 -91 -35 -113 0
-20 -9 -28 -47 -43 -51 -20 -85 -48 -97 -81 l-8 -21 -21 21 c-12 12 -24 22
-27 22 -3 0 -18 0 -35 0 -39 0 -38 12 6 83 32 51 35 63 30 102 -11 69 -1 89
47 102 27 8 62 30 97 63 l55 52 -63 -45 c-78 -57 -116 -67 -145 -39 -19 20
-20 24 -7 129 13 112 20 129 55 143 18 8 18 9 2 9 -15 1 -13 6 12 27 24 20 39
25 73 22 37 -3 42 -6 40 -23 -2 -11 -1 -17 3 -13 4 4 9 19 10 33 3 24 1 25
-48 25 l-51 0 30 32 c26 30 26 31 2 9 l-26 -23 -5 28 c-4 26 -4 25 -6 -7 -1
-37 -8 -49 -54 -89 -40 -35 -48 -15 -43 95 3 50 2 80 0 67 -3 -13 -10 -19 -16
-16 -6 4 -8 2 -5 -3 10 -16 17 -203 7 -203 -4 0 -20 -25 -36 -56 -15 -30 -31
-57 -35 -60 -5 -2 -11 12 -14 33 -3 21 -13 51 -22 67 -21 39 -21 165 1 239 10
31 15 65 13 75 -3 10 -5 5 -6 -12 l-1 -29 -22 19 -23 19 19 -23 c17 -20 18
-26 7 -60 -7 -22 -14 -75 -15 -119 -1 -88 -6 -93 -66 -64 -23 11 -24 11 -6 -3
10 -8 24 -17 30 -20 7 -3 6 -8 -4 -16 -12 -9 -10 -11 11 -6 44 10 57 -17 72
-148 13 -115 12 -118 -5 -95 -11 13 -36 45 -57 70 -32 37 -37 49 -28 65 10 18
9 18 -10 1 -19 -17 -21 -16 -66 20 -32 26 -47 46 -48 63 l-1 25 -8 -25 c-6
-21 -1 -31 34 -63 22 -21 60 -51 83 -68 23 -17 47 -44 53 -59 6 -15 22 -38 36
-51 16 -15 24 -33 24 -57 l0 -34 -35 31 c-70 61 -194 108 -239 91 -17 -6 -11
-9 29 -15 58 -9 149 -50 195 -88 28 -24 30 -29 17 -47 -12 -17 -12 -27 3 -70
14 -41 16 -77 13 -198 -3 -81 -6 -148 -8 -150 -5 -5 -73 103 -90 144 -8 20
-15 56 -15 79 0 35 -5 48 -25 63 -14 11 -25 28 -25 38 0 37 -27 106 -44 116
-16 9 -17 8 -3 -14 20 -31 32 -118 17 -118 -25 0 -49 22 -60 54 -6 19 -18 40
-27 48 -14 11 -14 9 1 -14 17 -27 17 -27 -13 -42 -16 -9 -47 -17 -68 -17 -30
-2 -32 -3 -11 -6 16 -2 28 -11 28 -19 0 -8 5 -14 11 -14 5 0 7 5 3 11 -8 14
14 29 44 29 30 0 28 -18 -3 -30 -14 -5 -25 -12 -25 -15 0 -2 10 -1 23 4 30 12
140 -27 145 -51 2 -11 -3 -18 -12 -18 -20 0 -20 -29 0 -58 14 -21 14 -22 -10
-22 -31 0 -55 -35 -28 -42 9 -2 28 -1 42 2 20 5 28 1 40 -21 8 -14 32 -52 52
-83 49 -73 50 -113 5 -166 -35 -44 -47 -49 -48 -22 -1 11 -4 8 -9 -8 l-7 -25
-12 25 c-11 23 -11 22 -7 -13 l5 -38 -85 3 c-80 3 -87 1 -105 -21 -10 -13 -19
-38 -19 -57 l0 -34 -90 0 c-53 0 -90 -4 -90 -10 0 -7 268 -10 784 -10 l784 0
-6 45 c-4 42 -3 45 20 45 13 0 33 7 44 16 18 15 18 15 -3 5 -42 -21 -51 -14
-51 36 1 27 6 52 12 56 7 6 5 7 -5 4 -24 -8 -35 103 -14 141 9 18 14 21 15 11
0 -22 30 -48 30 -28 1 8 8 -1 16 -20 8 -19 12 -41 10 -48 -7 -18 4 -43 19 -43
10 0 12 -8 6 -27 -4 -16 -6 -39 -5 -52 2 -27 -20 -74 -29 -64 -4 3 -2 -9 3
-27 5 -19 15 -37 21 -40 11 -8 -26 -50 -44 -50 -17 0 -2 -33 17 -36 10 -1 23
-7 29 -13 14 -14 9 -152 -7 -171 -8 -8 -13 -27 -12 -42 2 -26 1 -26 -31 -13
-18 8 -35 10 -38 5 -5 -8 41 -50 55 -50 12 0 9 -93 -3 -107 -7 -10 -101 -13
-409 -13 l-399 0 6 -22 c4 -13 11 -27 15 -32 10 -10 2406 -21 2451 -11 69 15
20 25 -126 25 -137 0 -155 2 -155 16 0 15 10 16 73 12 39 -3 64 -3 55 -1 -10
2 -18 9 -18 15 0 6 -53 8 -147 6 -82 -2 -218 -2 -303 -1 l-155 3 3 70 4 70
-41 0 c-22 0 -43 -5 -46 -11 -4 -6 -7 -37 -6 -70 1 -60 0 -60 -27 -57 -26 3
-27 5 -27 68 0 64 0 64 -33 74 -45 13 -54 0 -54 -78 l0 -65 -99 -3 c-77 -2
-100 0 -104 11 -4 9 -16 12 -40 8 -19 -3 -37 -1 -41 4 -3 5 -21 7 -39 3 l-34
-6 2 46 c1 25 7 47 12 50 6 2 11 71 13 171 2 93 5 172 8 177 3 4 72 8 155 8
l149 0 0 -80 c0 -43 5 -113 11 -155 l11 -75 38 0 c35 0 39 3 45 31 4 18 8 87
8 155 1 122 2 124 24 124 18 0 23 -6 24 -27 0 -16 3 -83 5 -151 2 -67 6 -127
9 -132 3 -6 21 -10 40 -10 32 0 34 3 49 52 20 71 38 190 34 230 l-3 33 888 3
c580 1 887 6 887 12 0 6 -37 10 -90 10 -87 0 -90 1 -80 19 26 50 -9 111 -66
111 -37 0 -39 5 -24 44 5 15 6 26 0 26 -5 0 -12 -9 -15 -20 -9 -28 -21 -25
-35 10 -19 45 -65 80 -106 80 -19 0 -34 5 -34 10 0 19 -24 37 -41 33 -25 -7
-30 10 -18 66 8 39 20 58 54 90 24 22 60 45 82 51 58 16 156 75 170 101 17 33
16 81 -3 129 -13 33 -14 46 -5 66 6 14 11 48 11 76 0 45 -4 54 -39 89 -21 22
-53 42 -70 45 -47 10 -61 37 -54 105 5 49 2 63 -17 94 -19 31 -22 44 -15 88
12 80 8 118 -15 146 -11 14 -24 36 -30 48 -5 13 -24 26 -44 31 -19 6 -51 26
-71 47 -58 57 -100 67 -165 39z m-847 -444 c13 -30 27 -65 31 -77 6 -19 15
-23 46 -23 21 0 42 -4 45 -10 4 -6 -41 -10 -127 -10 l-133 0 -22 39 -22 39 67
76 67 75 12 -27 c7 -15 23 -52 36 -82z m-1201 -29 c-3 -29 -7 -39 -13 -30 -12
20 -11 -125 1 -191 8 -42 7 -62 -6 -99 -9 -25 -18 -73 -20 -106 l-3 -60 13 50
13 50 7 -70 c12 -119 12 -138 -2 -142 -7 -3 -19 10 -28 29 l-15 33 6 -37 c6
-40 -12 -65 -22 -29 -3 12 -10 21 -15 21 -6 0 -7 -7 -4 -16 3 -9 7 -30 7 -47
1 -25 3 -27 6 -9 4 22 5 23 18 5 8 -10 15 -22 15 -26 0 -4 -47 -7 -105 -6 -58
1 -105 6 -105 10 0 5 12 6 28 3 21 -4 33 1 51 20 20 21 26 43 35 122 9 85 8
100 -7 126 -20 35 -15 47 10 27 17 -13 17 -13 2 11 -10 16 -13 32 -8 45 l8 20
1 -20 c1 -26 39 -96 40 -73 0 9 -5 20 -11 23 -13 9 -3 135 17 220 18 72 50
153 72 178 19 22 20 21 14 -32z m1396 -351 c2 -164 6 -226 15 -232 6 -4 -43
-8 -110 -8 -112 0 -149 8 -108 24 11 4 15 22 15 76 0 68 -1 70 -25 70 -14 0
-25 5 -25 10 0 6 5 10 10 10 6 0 10 24 10 54 0 50 -1 53 -23 49 -21 -4 -24 1
-36 58 -7 35 -19 76 -27 91 l-15 29 158 -3 158 -3 3 -225z m-2313 20 c-1 -74
-5 -94 -21 -112 -11 -13 -26 -36 -33 -52 -23 -55 -30 -14 -20 119 7 95 14 134
26 147 15 16 18 17 33 3 13 -12 16 -32 15 -105z m2489 32 c36 2 66 1 66 -4 0
-4 -28 -9 -62 -11 l-63 -3 68 -2 c77 -2 84 -21 9 -24 l-47 -1 55 -6 55 -7 -35
-11 c-19 -6 -30 -12 -23 -12 7 -1 25 -13 40 -28 l27 -28 1 -160 c0 -97 4 -161
10 -164 6 -2 23 -14 38 -27 16 -13 37 -24 47 -24 38 0 50 -11 44 -39 -4 -14
-11 -32 -17 -38 -5 -7 -6 -13 -1 -13 4 0 -1 -7 -12 -15 -17 -13 -16 -14 16 -5
64 18 104 13 131 -17 14 -16 33 -40 42 -55 9 -14 27 -28 39 -30 28 -4 76 -84
60 -100 -6 -6 -32 -13 -59 -16 l-48 -5 20 24 c15 18 16 20 3 10 -10 -7 -18
-10 -18 -6 0 5 -8 1 -17 -7 -11 -9 -38 -16 -66 -17 -44 0 -48 1 -41 21 3 11 7
26 8 33 1 7 8 20 15 29 12 14 12 16 -3 10 -17 -6 -21 5 -8 22 4 5 -3 -1 -15
-14 l-23 -23 -1 28 c-2 25 -2 25 -8 -7 -7 -35 -7 -35 -14 -8 -5 19 -12 26 -23
21 -13 -5 -13 -7 1 -23 20 -22 19 -54 -2 -76 -17 -17 -18 -15 -23 32 -4 43 -6
46 -14 24 -4 -14 -7 -34 -7 -45 2 -17 -5 -20 -40 -22 -23 -2 -47 1 -53 5 -6 5
-18 8 -26 8 -38 -2 -68 70 -41 100 15 15 25 58 12 50 -6 -4 -11 -3 -11 3 0 26
21 19 26 -9 5 -22 10 -28 17 -21 6 6 17 11 25 11 8 0 32 14 54 31 35 28 37 33
24 48 -7 9 -16 25 -19 36 -4 18 -5 18 -6 -2 -1 -25 -31 -33 -31 -9 0 8 -5 18
-12 22 -8 5 -9 2 -5 -9 3 -9 3 -16 -1 -14 -4 1 -21 -10 -37 -26 -17 -15 -31
-23 -33 -18 -4 11 -42 2 -42 -11 0 -5 -4 -6 -10 -3 -5 3 -10 -2 -10 -12 -1
-13 -6 -10 -18 12 -9 17 -16 33 -17 37 0 3 -3 9 -7 13 -3 4 -4 -6 -2 -22 3
-15 6 -36 7 -45 1 -10 5 -18 10 -18 4 0 5 -4 2 -10 -11 -18 -35 -11 -35 11 0
11 -5 17 -10 14 -6 -4 -8 -10 -6 -14 3 -4 1 -13 -4 -21 -7 -12 -12 -12 -28 3
-23 21 -52 22 -52 2 0 -8 -4 -15 -9 -15 -5 0 -12 -8 -14 -17 -3 -13 -5 -11 -6
6 0 13 -4 21 -8 18 -3 -4 -15 0 -25 10 -17 15 -18 14 -18 -18 l-1 -34 -15 28
c-8 15 -17 27 -20 27 -6 0 0 -34 13 -66 5 -13 3 -16 -10 -11 -12 4 -17 1 -17
-11 -1 -16 -2 -16 -14 1 -12 16 -14 16 -20 2 -3 -9 -2 -14 3 -11 5 3 11 -1 15
-9 5 -13 -7 -15 -42 -6 -1 1 2 10 8 22 10 19 10 20 -9 10 -16 -9 -20 -8 -23 6
-3 16 -6 15 -26 -5 -26 -26 -47 -18 -55 21 -3 14 -5 9 -6 -13 -1 -28 -3 -32
-12 -18 -7 12 -4 33 11 75 12 32 24 69 27 82 3 14 17 40 30 59 12 19 24 51 25
71 2 55 2 55 26 79 12 12 22 31 22 42 0 18 7 20 75 20 68 0 75 -2 75 -20 0
-17 7 -20 50 -20 61 0 67 17 8 23 -42 4 -42 4 7 5 70 1 69 0 54 18 -11 13 -30
14 -136 8 -110 -6 -123 -5 -123 10 0 14 17 16 142 16 141 0 141 0 123 20 -15
17 -19 40 -21 136 -2 104 -1 115 14 110 15 -5 15 -4 0 8 -24 18 -23 26 5 27
21 1 21 1 -3 9 -22 6 -21 8 15 11 22 2 43 0 46 -5 4 -5 36 -7 73 -4z m-2297
-231 c-3 -13 2 -21 17 -26 11 -4 24 -7 28 -6 8 1 4 -26 -5 -35 -14 -14 -6 -21
23 -22 25 -1 30 3 30 22 0 32 23 50 47 38 20 -11 60 -52 50 -52 -3 0 1 -12 8
-27 15 -29 1 -49 -15 -23 -5 8 -10 9 -14 2 -3 -6 3 -17 14 -25 17 -12 19 -19
10 -41 -13 -35 -13 -56 0 -36 7 11 10 4 9 -25 l-1 -40 -13 30 c-8 17 -14 36
-15 43 0 17 -8 15 -37 -8 -14 -11 -33 -20 -42 -20 -9 0 -25 -6 -36 -13 -11 -7
-30 -14 -42 -14 -25 -2 -22 12 14 66 13 19 23 39 23 45 -1 6 -8 -2 -17 -19 -9
-16 -24 -41 -34 -54 l-19 -24 -1 29 -2 29 -4 -29 -5 -28 -25 23 c-13 13 -28
23 -31 21 -4 -1 -8 31 -10 73 -2 54 2 83 14 106 19 38 34 24 28 -28 -2 -18 0
-33 5 -33 18 0 21 32 6 67 -18 44 -19 41 3 46 36 10 44 7 39 -12z m-172 -45
c35 -15 55 -57 55 -120 l0 -29 -22 19 -23 19 23 -26 c24 -27 31 -75 10 -63
-10 6 -10 4 0 -7 23 -25 15 -49 -19 -49 -32 0 -64 -14 -87 -37 -7 -7 -17 -13
-21 -13 -12 0 -23 178 -15 253 7 66 7 67 36 67 16 0 44 -6 63 -14z m805 -431
c0 -8 -9 -15 -20 -15 -14 0 -20 -6 -18 -17 3 -16 -11 -18 -164 -21 -166 -2
-168 -2 -168 19 0 19 4 21 43 17 23 -3 34 -3 25 -1 -10 3 -18 11 -18 19 0 12
28 14 160 14 136 0 160 -2 160 -15z m-50 -80 c0 -8 -9 -15 -19 -15 -13 0 -21
-8 -23 -22 -3 -23 -3 -23 -225 -26 -218 -2 -223 -2 -223 18 0 17 7 20 39 20
34 0 38 3 34 20 -5 20 0 20 206 20 181 0 211 -2 211 -15z m415 -95 c-4 -17
-13 -30 -20 -30 -19 0 -27 -30 -10 -36 8 -4 21 -4 28 -1 20 7 21 -142 1 -164
-14 -16 -14 -18 5 -29 29 -15 26 -28 -13 -65 -32 -30 -34 -35 -25 -71 14 -62
13 -64 -31 -64 -43 0 -63 21 -42 42 8 8 8 15 2 24 -7 8 -7 20 -1 38 8 19 7 29
-3 38 -11 11 -11 17 2 36 14 22 14 27 -2 56 -14 26 -16 45 -10 95 6 55 4 64
-15 85 -21 22 -21 23 -2 40 15 14 32 17 70 15 51 -4 55 -2 52 36 -1 19 -1 19
9 2 6 -10 8 -31 5 -47z"/>
<path d="M2900 2545 l0 -65 60 0 60 0 0 65 0 65 -60 0 -60 0 0 -65z"/>
<path d="M3090 2545 l0 -65 65 0 65 0 0 65 0 65 -65 0 -65 0 0 -65z"/>
</g>
</svg>
